<svg width="149" height="29" viewBox="0 0 149 29" fill="none" xmlns="http://www.w3.org/2000/svg">
<path d="M11.395 12.9111C12.7148 12.9116 14.0217 12.6519 15.2412 12.147C16.4607 11.6421 17.5687 10.9018 18.5021 9.96839C19.4355 9.035 20.176 7.92681 20.6811 6.70711C21.1863 5.48742 21.4463 4.1801 21.4463 2.85986H11.395V12.9111Z" fill="#7557D3"/>
<path d="M0.266846 13.988C0.266846 15.3083 0.526863 16.6156 1.03203 17.8353C1.53719 19.055 2.27759 20.1632 3.21098 21.0966C4.14437 22.03 5.25245 22.7703 6.4719 23.2752C7.69136 23.7801 8.99833 24.0398 10.3181 24.0393V13.988H0.266846Z" fill="#7557D3"/>
<path d="M11.395 13.988V24.0393H21.4463C21.4463 22.7191 21.1863 21.4118 20.6811 20.1921C20.176 18.9724 19.4355 17.8642 18.5021 16.9308C17.5687 15.9974 16.4607 15.2571 15.2412 14.7522C14.0217 14.2473 12.7148 13.9876 11.395 13.988Z" fill="#7557D3"/>
<path d="M0.266846 12.9111H10.3181V2.85986C8.99833 2.85942 7.69136 3.11908 6.4719 3.62401C5.25245 4.12893 4.14437 4.86922 3.21098 5.80262C2.27759 6.73601 1.53719 7.84422 1.03203 9.06392C0.526863 10.2836 0.266846 11.5909 0.266846 12.9111Z" fill="#7557D3"/>
<path d="M22.5232 2.85986C22.5232 5.52563 23.5822 8.08222 25.4672 9.9672C27.3521 11.8522 29.9087 12.9111 32.5745 12.9111V2.85986H22.5232Z" fill="#7557D3"/>
<path d="M22.5232 24.0393H32.5745V13.988C29.9087 13.988 27.3521 15.047 25.4672 16.932C23.5822 18.817 22.5232 21.3736 22.5232 24.0393Z" fill="#7557D3"/>
<path d="M48.3142 19.729C50.8453 19.729 52.6397 18.8323 54.397 17.1123L56.5259 19.1623C54.5558 21.3956 52.0788 22.9623 48.3649 22.9623C42.3463 22.9623 38.3181 18.8323 38.3181 13.629C38.3181 8.42565 42.4713 4.29565 48.0168 4.29565C53.4744 4.29565 57.3438 8.33899 57.3438 13.2757C57.3419 13.7958 57.2842 14.3142 57.1714 14.8223H42.3666C42.7518 17.6657 45.1241 19.729 48.3142 19.729ZM42.4916 11.849H53.2142C52.7107 9.35565 50.6865 7.54899 47.9999 7.54899C46.727 7.55674 45.4933 7.98422 44.4951 8.76343C43.497 9.54263 42.7917 10.6288 42.4916 11.849Z" fill="#7557D3"/>
<path d="M76.3695 11.5686V22.6033H72.4368V11.903C72.4368 9.48534 70.7995 7.79668 68.4272 7.79668C65.978 7.79668 63.8062 9.83311 63.8062 12.749V22.6033H59.8567V4.71029H63.8062V7.09113C64.4255 6.22835 65.2407 5.52505 66.1846 5.03907C67.1285 4.55308 68.1743 4.29829 69.2358 4.29565C73.5294 4.29565 76.3695 7.16135 76.3695 11.5686Z" fill="#7557D3"/>
<path d="M90.5607 4.65454L85.8638 17.5435L81.2072 4.65454H77.0874L83.8744 22.5461L81.7574 28.3468H85.6994L94.6771 4.65454H90.5607Z" fill="#7557D3"/>
<path d="M103.093 4.29661C104.291 4.27828 105.479 4.52348 106.57 5.01457C107.662 5.50565 108.63 6.23045 109.405 7.13685V4.70997H113.344V22.5481H109.405V20.1412C108.625 21.0413 107.656 21.7604 106.565 22.2478C105.475 22.7351 104.289 22.9788 103.093 22.9615C98.0285 22.9615 94.3181 18.8311 94.3181 13.6274C94.3181 8.42361 98.0285 4.29661 103.093 4.29661ZM103.873 19.4512C107.029 19.4512 109.405 16.871 109.405 13.6207C109.405 10.3704 107.052 7.79022 103.873 7.79022C100.694 7.79022 98.3242 10.3871 98.3242 13.6207C98.3242 16.8543 100.717 19.4512 103.873 19.4512Z" fill="#7557D3"/>
<path d="M144.155 4.70992V7.13302C143.364 6.22749 142.376 5.50358 141.264 5.01319C140.152 4.52281 138.941 4.2781 137.72 4.29663C132.56 4.29663 128.78 8.44288 128.78 13.629C128.78 18.8152 132.546 22.9614 137.72 22.9614C138.94 22.9793 140.149 22.7356 141.261 22.2477C142.373 21.7598 143.361 21.0397 144.155 20.1384V22.5448H148.164V4.70992H144.155ZM138.518 19.4484C135.3 19.4484 132.861 16.8687 132.861 13.619C132.861 10.3693 135.258 7.78961 138.518 7.78961C141.778 7.78961 144.155 10.386 144.155 13.619C144.155 16.852 141.734 19.4484 138.518 19.4484Z" fill="#7557D3"/>
<path d="M127.703 19.967V19.5181H126.02C123.758 19.5181 122.889 18.5666 122.889 16.5797V8.08976H127.477V4.63211H122.903V0.346924H118.944V4.63547H115.498V8.09311H118.954V16.7573C118.954 20.9386 121.038 22.9623 124.825 22.9623C124.939 22.9623 125.057 22.9623 125.161 22.9623H127.699V19.9704L127.703 19.967Z" fill="#7557D3"/>
</svg>
