<svg width="31" height="31" viewBox="0 0 31 31" fill="none" xmlns="http://www.w3.org/2000/svg">
<path d="M15.5013 2.58643C8.36873 2.58643 2.58594 8.36922 2.58594 15.5018C2.58594 21.9472 7.30827 27.2895 13.4837 28.2622V19.236H10.2029V15.5018H13.4837V12.6563C13.4837 9.41676 15.4122 7.63038 18.3611 7.63038C19.7741 7.63038 21.2544 7.88226 21.2544 7.88226V11.0585H19.6217C18.0201 11.0585 17.5189 12.0556 17.5189 13.0773V15.4992H21.0981L20.5259 19.2334H17.5189V28.2596C23.6944 27.2921 28.4167 21.9485 28.4167 15.5018C28.4167 8.36922 22.6339 2.58643 15.5013 2.58643V2.58643Z" fill="#3B5998"/>
</svg>
