<svg width="36" height="37" viewBox="0 0 36 37" fill="none" xmlns="http://www.w3.org/2000/svg">
<path d="M5.93636 7.14409L4.29419 6.854L0.000318722 31.1613L1.64249 31.4513L5.93636 7.14409Z" fill="#0B2253"/>
<path d="M8.3453 7.5689L6.70312 7.27881L2.40925 31.5861L4.05143 31.8762L8.3453 7.5689Z" fill="#0B2253"/>
<path d="M10.8087 8.00396L9.1665 7.71387L4.87263 32.0211L6.51481 32.3112L10.8087 8.00396Z" fill="#0B2253"/>
<path d="M12.3761 13.1929L10.7339 12.9028L7.28134 32.4474L8.92351 32.7375L12.3761 13.1929Z" fill="#0B2253"/>
<path d="M15.6812 8.8648L14.0391 8.57471L9.74519 32.882L11.3874 33.1721L15.6812 8.8648Z" fill="#0B2253"/>
<path d="M11.5937 12.8278C11.9262 12.8865 12.226 12.7627 12.2634 12.5512C12.3007 12.3397 12.0615 12.1206 11.729 12.0619C11.3965 12.0032 11.0967 12.127 11.0593 12.3385C11.0219 12.55 11.2612 12.769 11.5937 12.8278Z" fill="#0B2253"/>
<path d="M11.1752 11.6821L12.3613 11.8916L13.6348 4.68277C13.6872 4.41621 13.7918 4.16262 13.9426 3.93665C14.0934 3.71069 14.2874 3.51681 14.5134 3.3661C14.7394 3.21538 14.993 3.1108 15.2596 3.05846C15.5261 3.00612 15.8004 3.00703 16.0666 3.0611C18.1417 3.35234 24.0963 4.47955 24.0963 4.47955C24.6839 4.61532 25.2138 4.93279 25.6106 5.38686C25.9192 5.81244 26.0486 6.34205 25.971 6.86196L24.6976 14.0708L25.8654 14.2771L27.1389 7.06826C27.1904 6.61554 27.1501 6.15705 27.0203 5.72027C26.8906 5.2835 26.674 4.87743 26.3836 4.5263C26.142 4.18932 25.8308 3.90812 25.4712 3.70172C25.1115 3.49532 24.7118 3.36853 24.2989 3.32991L16.2697 1.91155C15.3142 1.82761 14.3591 2.07787 13.5676 2.61964C13.2476 2.87171 12.9807 3.18464 12.7822 3.54032C12.5837 3.896 12.4576 4.28741 12.411 4.69206L11.1752 11.6821Z" fill="#0B2253"/>
<path d="M33.9666 12.0948L32.3245 11.8047L28.0306 36.1119L29.6728 36.402L33.9666 12.0948Z" fill="#0B2253"/>
<path d="M31.5577 11.6705L29.9155 11.3804L25.6217 35.6876L27.2638 35.9777L31.5577 11.6705Z" fill="#0B2253"/>
<path d="M29.0941 11.2334L27.4519 10.9434L23.158 35.2506L24.8002 35.5407L29.0941 11.2334Z" fill="#0B2253"/>
<path d="M25.8441 15.5713L24.2019 15.2812L20.7494 34.8259L22.3915 35.116L25.8441 15.5713Z" fill="#0B2253"/>
<path d="M24.2215 10.3746L22.5793 10.0845L18.2855 34.3917L19.9276 34.6818L24.2215 10.3746Z" fill="#0B2253"/>
<path d="M25.0617 15.2067C25.3942 15.2654 25.694 15.1416 25.7314 14.9301C25.7687 14.7186 25.5295 14.4996 25.197 14.4408C24.8645 14.3821 24.5647 14.5059 24.5273 14.7174C24.49 14.9289 24.7292 15.148 25.0617 15.2067Z" fill="#0B2253"/>
<path d="M30.6895 21.0569L4.30176 16.3955L3.55713 20.6108L29.9449 25.2721L30.6895 21.0569Z" fill="#0B2253"/>
<path d="M7.1281 19.3968L6.77611 19.3347L6.90544 18.6025L6.21905 18.4813L6.08972 19.2134L5.73772 19.1512L6.0395 17.4429L6.3915 17.5051L6.26921 18.1973L6.9556 18.3186L7.07789 17.6263L7.42988 17.6885L7.1281 19.3968ZM7.77225 19.5106L7.43199 19.4505L7.65625 18.181L7.99651 18.2411L7.77225 19.5106ZM7.69434 17.849C7.70332 17.7981 7.72753 17.7592 7.76697 17.7323C7.80719 17.7055 7.85663 17.6973 7.9153 17.7077C7.97318 17.7179 8.01643 17.7425 8.04504 17.7814C8.07366 17.8204 8.08347 17.8653 8.07449 17.9161C8.06537 17.9677 8.04031 18.0069 7.99931 18.0335C7.95909 18.0603 7.91043 18.0686 7.85333 18.0585C7.79622 18.0484 7.75298 18.0239 7.72358 17.9848C7.69497 17.9459 7.68522 17.9006 7.69434 17.849ZM8.62481 19.4035C8.68739 19.4146 8.74127 19.4064 8.78646 19.3788C8.83165 19.3513 8.86007 19.3092 8.87172 19.2523L9.18969 19.3085C9.17371 19.3944 9.13629 19.4693 9.07743 19.5331C9.0187 19.5961 8.94553 19.6405 8.85792 19.6661C8.77122 19.6911 8.67938 19.6951 8.58238 19.6779C8.40091 19.6459 8.26792 19.5631 8.18342 19.4296C8.09905 19.2953 8.07483 19.1265 8.11076 18.9231L8.1147 18.9008C8.14924 18.7053 8.22883 18.5584 8.35345 18.4602C8.47807 18.3621 8.63112 18.329 8.81259 18.3611C8.97138 18.3891 9.09047 18.4569 9.16987 18.5645C9.2502 18.6715 9.27787 18.8002 9.25291 18.9507L8.93494 18.8945C8.94498 18.8285 8.93404 18.7717 8.90212 18.7241C8.87033 18.6758 8.82236 18.6459 8.75822 18.6346C8.67922 18.6206 8.61427 18.639 8.56337 18.6897C8.51339 18.7398 8.477 18.8293 8.4542 18.9584L8.44798 18.9936C8.42491 19.1242 8.42827 19.2216 8.45808 19.2857C8.48788 19.3499 8.54346 19.3892 8.62481 19.4035ZM9.36718 19.1257C9.38942 18.9998 9.4335 18.8918 9.49941 18.8018C9.56531 18.7118 9.6484 18.6479 9.74867 18.6099C9.84973 18.5721 9.96048 18.5638 10.0809 18.5851C10.2522 18.6154 10.3826 18.6925 10.472 18.8163C10.5623 18.9404 10.5977 19.0934 10.5785 19.2756L10.5655 19.3628C10.5311 19.5576 10.4491 19.7044 10.3195 19.8033C10.19 19.9014 10.0338 19.9343 9.85074 19.902C9.6677 19.8697 9.53179 19.7852 9.44301 19.6485C9.35501 19.5119 9.32883 19.3428 9.36448 19.141L9.36718 19.1257ZM9.70191 19.2102C9.68063 19.3307 9.68701 19.427 9.72105 19.4992C9.75522 19.5705 9.81455 19.6137 9.89903 19.6286C9.98116 19.6431 10.0508 19.6232 10.108 19.5687C10.1654 19.5135 10.2063 19.4167 10.2307 19.2783C10.2516 19.1601 10.2447 19.0645 10.21 18.9915C10.1753 18.9184 10.1161 18.8745 10.0324 18.8597C9.94953 18.845 9.87965 18.8662 9.82282 18.9231C9.76612 18.9792 9.72582 19.0749 9.70191 19.2102ZM11.0223 20.0848L10.6821 20.0247L11.0004 18.2224L11.3407 18.2826L11.0223 20.0848ZM12.0859 20.1395C11.9842 20.2264 11.8595 20.2568 11.7116 20.2307C11.5755 20.2067 11.4784 20.1492 11.4202 20.0583C11.3629 19.9675 11.3467 19.8464 11.3718 19.6952L11.5188 18.8633L11.8579 18.9232L11.713 19.7434C11.6897 19.8756 11.7382 19.9523 11.8587 19.9736C11.9737 19.9939 12.0597 19.968 12.1168 19.8958L12.2756 18.997L12.6158 19.0571L12.3916 20.3266L12.0724 20.2703L12.0859 20.1395ZM13.1896 19.1585L13.1751 19.3023C13.2845 19.2079 13.4159 19.1742 13.5692 19.2013C13.7327 19.2302 13.8335 19.3146 13.8717 19.4544C13.9837 19.3411 14.1222 19.299 14.2873 19.3282C14.4249 19.3525 14.5203 19.4109 14.5733 19.5033C14.6265 19.595 14.6389 19.7214 14.6104 19.8825L14.4672 20.6933L14.1269 20.6332L14.2699 19.8236C14.2826 19.7516 14.2778 19.6967 14.2555 19.6589C14.2332 19.6203 14.1865 19.5947 14.1154 19.5821C14.0137 19.5642 13.9347 19.6002 13.8785 19.6903L13.7256 20.5623L13.3866 20.5024L13.5294 19.694C13.5424 19.6205 13.5373 19.5647 13.5141 19.5267C13.491 19.4888 13.4446 19.4637 13.375 19.4514C13.2788 19.4344 13.2021 19.462 13.145 19.5341L12.9865 20.4317L12.6474 20.3718L12.8716 19.1023L13.1896 19.1585ZM15.2652 19.5251L15.2498 19.6736C15.3606 19.5763 15.4923 19.541 15.6448 19.568C15.7793 19.5917 15.8725 19.6489 15.9242 19.7395C15.976 19.8302 15.9888 19.9542 15.9625 20.1117L15.8177 20.9319L15.4786 20.872L15.622 20.06C15.6347 19.9881 15.6283 19.9333 15.6026 19.8957C15.5772 19.8573 15.528 19.8317 15.4553 19.8188C15.3599 19.802 15.2811 19.83 15.219 19.9029L15.0609 20.7982L14.7218 20.7383L14.9461 19.4687L15.2652 19.5251Z" fill="#FA0000"/>
</svg>
