<svg width="31" height="31" viewBox="0 0 31 31" fill="none" xmlns="http://www.w3.org/2000/svg">
<path d="M15.88 1C7.6619 1 1 7.6619 1 15.88C1 24.0981 7.6619 30.76 15.88 30.76C24.0981 30.76 30.76 24.0981 30.76 15.88C30.76 7.6619 24.0981 1 15.88 1ZM12.2375 22.0475H9.2243V12.3507H12.2375V22.0475ZM10.7123 11.1603C9.7606 11.1603 9.14525 10.486 9.14525 9.6521C9.14525 8.80115 9.7792 8.14705 10.7511 8.14705C11.7229 8.14705 12.3181 8.80115 12.3367 9.6521C12.3367 10.486 11.7229 11.1603 10.7123 11.1603ZM23.2425 22.0475H20.2293V16.6736C20.2293 15.4228 19.7922 14.5734 18.7026 14.5734C17.8702 14.5734 17.3758 15.1484 17.1572 15.7018C17.0766 15.8986 17.0565 16.1776 17.0565 16.4551V22.0459H14.0417V15.4429C14.0417 14.2324 14.003 13.2202 13.9627 12.3491H16.5806L16.7186 13.6961H16.779C17.1758 13.0637 18.1477 12.1306 19.7736 12.1306C21.7561 12.1306 23.2425 13.4589 23.2425 16.314V22.0475V22.0475Z" fill="#3F729B"/>
</svg>
