<svg width="31" height="31" viewBox="0 0 31 31" fill="none" xmlns="http://www.w3.org/2000/svg">
<path d="M15.4999 1.9375C8.01023 1.9375 1.93738 8.01035 1.93738 15.5C1.93738 22.9896 8.01023 29.0625 15.4999 29.0625C22.9895 29.0625 29.0624 22.9896 29.0624 15.5C29.0624 8.01035 22.9895 1.9375 15.4999 1.9375ZM22.0177 12.1608C22.0268 12.3031 22.0268 12.4515 22.0268 12.5968C22.0268 17.0409 18.6423 22.1602 12.4574 22.1602C10.5502 22.1602 8.7822 21.6062 7.29275 20.6525C7.56521 20.6828 7.82556 20.6949 8.10408 20.6949C9.6783 20.6949 11.1254 20.1621 12.2788 19.26C10.8014 19.2297 9.56023 18.2609 9.1364 16.9289C9.65408 17.0046 10.1203 17.0046 10.6531 16.8684C9.89241 16.7138 9.20868 16.3007 8.71807 15.6991C8.22746 15.0976 7.96024 14.3448 7.96179 13.5686V13.5262C8.40681 13.7774 8.93054 13.9318 9.47849 13.953C9.01786 13.646 8.64009 13.2301 8.37869 12.7422C8.11729 12.2542 7.98033 11.7093 7.97996 11.1558C7.97996 10.5291 8.14343 9.95693 8.43709 9.46045C9.28142 10.4998 10.335 11.3499 11.5294 11.9555C12.7238 12.561 14.0322 12.9085 15.3697 12.9752C14.8944 10.6896 16.6018 8.83984 18.6544 8.83984C19.6231 8.83984 20.495 9.24551 21.1095 9.89941C21.8694 9.75713 22.596 9.47256 23.2438 9.09111C22.9926 9.86914 22.4658 10.5261 21.7665 10.9408C22.4446 10.8682 23.0985 10.6805 23.704 10.4171C23.2469 11.0892 22.6747 11.6855 22.0177 12.1608V12.1608Z" fill="#26A6D1"/>
</svg>
