<svg width="38" height="38" viewBox="0 0 38 38" fill="none" xmlns="http://www.w3.org/2000/svg">
<g clip-path="url(#clip0_6259_1148)">
<path d="M29.3714 20.1894C29.3219 15.374 33.2975 13.0695 33.4738 12.9539C31.2409 9.69132 27.7663 9.24254 26.5246 9.19298C23.5704 8.89013 20.7539 10.933 19.2506 10.933C17.7528 10.933 15.4346 9.23428 12.9815 9.27833C9.75473 9.32789 6.784 11.156 5.12105 14.0414C1.77038 19.8562 4.26204 28.4683 7.52737 33.1901C9.12424 35.4973 11.0295 38.0881 13.5266 37.9972C15.933 37.9009 16.8415 36.4389 19.7517 36.4389C22.6618 36.4389 23.4795 37.9972 26.0235 37.9504C28.6143 37.9009 30.2525 35.5964 31.8356 33.2837C33.6692 30.6048 34.4236 28.0085 34.4704 27.8791C34.4098 27.8461 29.4238 25.9381 29.3714 20.1894Z" fill="white"/>
<path d="M24.5862 6.06811C25.9105 4.46298 26.8081 2.22736 26.563 0C24.6496 0.0770903 22.3396 1.26924 20.9657 2.87712C19.735 4.30054 18.664 6.57195 18.9504 8.75525C21.0814 8.9232 23.2619 7.67048 24.5862 6.06811Z" fill="white"/>
</g>
<defs>
<clipPath id="clip0_6259_1148">
<rect width="38" height="38" fill="white"/>
</clipPath>
</defs>
</svg>
