<svg width="48" height="48" viewBox="0 0 48 48" fill="none" xmlns="http://www.w3.org/2000/svg">
<rect width="48" height="48" rx="8" fill="#D7E4F8"/>
<g clip-path="url(#clip0_6345_2771)">
<path d="M32.8274 20.7477L21.6385 31.9367C21.1328 32.4423 20.313 32.4423 19.8075 31.9367L13.2232 25.3524C12.7176 24.8467 12.7176 24.0269 13.2232 23.5214L24.412 12.3323C24.9178 11.8268 25.7375 11.8268 26.2431 12.3323L32.8274 18.9166C33.3331 19.4222 33.3331 20.2421 32.8274 20.7477Z" fill="#8CBAFA"/>
<path d="M32.827 18.9167L32.0055 18.0949C32.4557 18.5451 32.4107 19.32 31.9051 19.8256L20.7161 31.0146C20.2105 31.5204 19.4356 31.5652 18.9854 31.115L19.8071 31.9368C20.3127 32.4423 21.1324 32.4423 21.6382 31.9368L32.827 20.7477C33.3328 20.2422 33.3328 19.4222 32.827 18.9167Z" fill="#5692D8"/>
<path d="M15.3746 24.8919C15.2845 24.8919 15.1946 24.8575 15.1259 24.7888C14.9886 24.6515 14.9886 24.429 15.1259 24.2917L20.6065 18.8112C20.7438 18.6738 20.9665 18.6738 21.1036 18.8112C21.2409 18.9485 21.2409 19.1712 21.1036 19.3083L15.6231 24.789C15.5544 24.8575 15.4645 24.8919 15.3746 24.8919Z" fill="#252D4C"/>
<path d="M17.1161 26.6336C17.026 26.6336 16.9361 26.5992 16.8674 26.5305C16.7301 26.3932 16.7301 26.1707 16.8674 26.0334L22.3479 20.5529C22.4853 20.4155 22.7079 20.4155 22.8451 20.5529C22.9824 20.6902 22.9824 20.9128 22.8451 21.05L17.3645 26.5305C17.2959 26.5992 17.206 26.6336 17.1161 26.6336Z" fill="#252D4C"/>
<path d="M24.2288 14.8826L23.1324 15.9789C22.7013 16.4099 22.7013 17.1086 23.1324 17.5397C23.5634 17.9707 24.2623 17.9707 24.6933 17.5397L25.7896 16.4434C26.2206 16.0124 26.2206 15.3137 25.7896 14.8826C25.3585 14.4516 24.6596 14.4516 24.2288 14.8826Z" fill="#FFCD34"/>
<path d="M33.8835 24.052H18.0599C17.3448 24.052 16.7651 24.6317 16.7651 25.3468V34.6584C16.7651 35.3734 17.3448 35.9532 18.0599 35.9532H33.8835C34.5987 35.9532 35.1782 35.3734 35.1782 34.6584V25.3468C35.1784 24.6317 34.5987 24.052 33.8835 24.052Z" fill="#FFCD34"/>
<path d="M33.8837 24.052H32.7249C33.4399 24.052 34.0196 24.6317 34.0196 25.3468V34.6584C34.0196 35.3734 33.4399 35.9532 32.7249 35.9532H33.8837C34.5989 35.9532 35.1785 35.3734 35.1785 34.6584V25.3468C35.1786 24.6317 34.5989 24.052 33.8837 24.052Z" fill="#E69012"/>
<path d="M16.7651 26.9773H35.1784V29.2143H16.7651V26.9773Z" fill="#575B7A"/>
<path d="M34.0193 26.9773H35.1782V29.2143H34.0193V26.9773Z" fill="#252D4C"/>
<path d="M30.6528 32.7887V34.1684C30.6528 34.2752 30.7393 34.3616 30.846 34.3616H33.0405C33.1473 34.3616 33.2337 34.2752 33.2337 34.1684V32.7887C33.2337 32.682 33.1473 32.5956 33.0405 32.5956H30.846C30.7393 32.5956 30.6528 32.682 30.6528 32.7887Z" fill="#E9E9EA"/>
<path d="M24.0361 32.7887V34.1684C24.0361 34.2752 24.1227 34.3616 24.2293 34.3616H28.871C28.9778 34.3616 29.0642 34.2752 29.0642 34.1684V32.7887C29.0642 32.682 28.9778 32.5956 28.871 32.5956H24.2293C24.1227 32.5956 24.0361 32.682 24.0361 32.7887Z" fill="#E9E9EA"/>
<path d="M22.1445 34.7132H19.832C19.6378 34.7132 19.4805 34.5557 19.4805 34.3616C19.4805 34.1673 19.6378 34.01 19.832 34.01H22.1445C22.3387 34.01 22.496 34.1673 22.496 34.3616C22.496 34.5557 22.3387 34.7132 22.1445 34.7132Z" fill="#252D4C"/>
</g>
<defs>
<clipPath id="clip0_6345_2771">
<rect width="24" height="24" fill="white" transform="translate(12 12)"/>
</clipPath>
</defs>
</svg>
