<svg width="48" height="48" viewBox="0 0 48 48" fill="none" xmlns="http://www.w3.org/2000/svg">
<rect width="48" height="48" rx="8" fill="#D7E4F8"/>
<g clip-path="url(#clip0_6345_2750)">
<path d="M16.7579 30.0377L13.1907 27.232C12.9959 27.0854 12.9321 26.8266 13.049 26.6573C13.6208 25.8293 14.7221 25.5465 15.8043 25.9499L19.0304 27.7799L16.7579 30.0377Z" fill="#FF2C5C"/>
<path d="M17.9548 31.2348L20.7679 34.8093C20.9145 35.0042 21.1733 35.068 21.3426 34.951L21.5553 34.8041C22.2557 34.3206 22.4948 33.389 22.1537 32.4737L20.22 28.9696L17.9548 31.2348Z" fill="#FF2C5C"/>
<path d="M16.966 26.6088L14.9478 28.6139L16.7579 30.0377L19.0305 27.7798L16.966 26.6088Z" fill="#E62753"/>
<path d="M17.7243 19.049C17.2763 18.601 17.2408 17.8872 17.6411 17.3961C18.2135 16.6937 18.9307 15.9115 19.3609 15.4812C19.9495 14.8927 20.0009 14.963 20.6297 14.5775C20.7223 14.5208 20.8418 14.5345 20.9186 14.6113L22.1621 15.8548C22.2389 15.9316 22.2525 16.0511 22.1958 16.1436C21.8104 16.7725 21.8807 16.8238 21.2921 17.4124C20.8619 17.8426 20.0797 18.5598 19.3772 19.1322C18.8861 19.5324 18.1722 19.497 17.7243 19.049Z" fill="#C3D3DB"/>
<path d="M28.9511 30.2757C28.5031 29.8278 28.4677 29.1139 28.8679 28.6228C29.4403 27.9204 30.1575 27.1382 30.5877 26.7079C31.1763 26.1194 31.2276 26.1897 31.8565 25.8042C31.9491 25.7475 32.0686 25.7612 32.1454 25.838L33.3889 27.0815C33.4657 27.1583 33.4793 27.2778 33.4226 27.3703C33.0372 27.9992 33.1075 28.0505 32.5189 28.6391C32.0887 29.0694 31.3065 29.7866 30.604 30.359C30.1129 30.7592 29.3991 30.7237 28.9511 30.2757Z" fill="#C3D3DB"/>
<path d="M23.3408 23.2894L27.7418 18.8885L14.1086 14.6051C13.8278 14.5334 13.5487 14.6016 13.363 14.7874L12.2112 15.9392C11.8255 16.3249 11.991 17.032 12.5356 17.3244L23.3408 23.2894Z" fill="#FF2C5C"/>
<path d="M24.6605 17.9207L20.7317 21.8496L23.34 23.2895L27.741 18.8885L24.6605 17.9207Z" fill="#E62753"/>
<path d="M24.7107 24.6599L29.1116 20.259L33.3951 33.8922C33.4667 34.1729 33.3985 34.452 33.2128 34.6377L32.061 35.7895C31.6752 36.1753 30.9681 36.0097 30.6757 35.4651L24.7107 24.6599Z" fill="#FF2C5C"/>
<path d="M33.0172 18.4089L25.6237 25.8023C24.3832 27.0429 23.0642 28.2001 21.6834 29.2594L18.1657 31.9579C17.3513 32.5826 16.3828 32.6582 15.8623 32.1376C15.3417 31.6171 15.4173 30.6486 16.042 29.8342L18.7405 26.3165C19.7998 24.9357 20.9569 23.6168 22.1976 22.3762L29.5911 14.9827C30.6018 13.972 31.7626 13.1299 32.9889 12.5517C34.0449 12.0539 35.1674 11.742 35.7127 12.2872C36.2579 12.8325 35.946 13.955 35.4482 15.011C34.8701 16.2374 34.028 17.3982 33.0172 18.4089Z" fill="#E0F3FC"/>
<path d="M35.7128 12.2873C35.5209 12.0953 35.2573 12.0099 34.9504 12.0012C34.9725 12.569 34.7263 13.2892 34.4002 13.9809C33.822 15.2072 32.9799 16.368 31.9692 17.3787L24.5757 24.7722C23.3351 26.0127 22.0162 27.1699 20.6354 28.2291L17.1177 30.9276C16.5997 31.325 16.0195 31.4998 15.5317 31.4407C15.5684 31.7114 15.6777 31.9528 15.8624 32.1376C16.383 32.6581 17.3515 32.5825 18.1659 31.9578L21.6836 29.2593C23.0644 28.2 24.3833 27.0429 25.6239 25.8023L33.0174 18.4089C34.0281 17.3982 34.8702 16.2374 35.4484 15.0111C35.9462 13.955 36.2581 12.8325 35.7128 12.2873Z" fill="#C3D3DB"/>
<path d="M33.6299 16.993L33.3774 17.2454C33.1429 17.4799 30.5201 14.8571 30.7546 14.6226L31.007 14.3701C31.1662 14.211 31.3997 14.1608 31.59 14.245C32.5377 14.6642 33.3358 15.4623 33.7551 16.4101C33.8391 16.6002 33.789 16.8338 33.6299 16.993Z" fill="#51C4F5"/>
<path d="M16.6614 31.6903C16.5714 31.6903 16.4814 31.656 16.4128 31.5874C16.2755 31.4501 16.2755 31.2274 16.4128 31.0902L19.4829 28.0201C19.6202 27.8828 19.8428 27.8828 19.9801 28.0201C20.1174 28.1574 20.1174 28.38 19.9801 28.5172L16.9099 31.5874C16.8413 31.656 16.7514 31.6903 16.6614 31.6903Z" fill="#E62753"/>
</g>
<defs>
<clipPath id="clip0_6345_2750">
<rect width="24" height="24" fill="white" transform="translate(12 12)"/>
</clipPath>
</defs>
</svg>
