<svg width="24" height="24" viewBox="0 0 24 24" fill="none" xmlns="http://www.w3.org/2000/svg">
<g clip-path="url(#clip0_6345_2791)">
<path d="M8.69257 17.035L6.96509 15.3075L10.2193 12.0533L11.9468 13.7807L8.69257 17.035Z" fill="url(#paint0_linear_6345_2791)"/>
<path d="M1.38804 23.7974L0.202662 22.612C-0.0418379 22.3675 -0.0418379 21.9711 0.202662 21.7266L2.27351 23.7974C2.02896 24.0419 1.63254 24.0419 1.38804 23.7974Z" fill="url(#paint1_linear_6345_2791)"/>
<path d="M6.89586 20.8565L4.32247 23.4299C3.75064 24.0017 2.91162 24.1433 2.20719 23.8549C1.97506 23.7599 1.75808 23.6182 1.56969 23.4299L0.570312 22.4305C0.381968 22.2422 0.240265 22.0252 0.145343 21.793C-0.143126 21.0885 -0.00146943 20.2495 0.570312 19.6777L3.14375 17.1044C3.69561 16.5525 4.34051 16.1028 5.0488 15.775L5.13898 15.7332C5.49317 15.5696 5.83151 15.3749 6.15026 15.1527C6.21725 15.1057 6.28325 15.0577 6.34859 15.0085C6.3493 15.008 6.35 15.0074 6.35075 15.0069C6.56394 14.846 6.863 14.8655 7.05186 15.0543L8.94636 16.9488C9.1347 17.1372 9.15547 17.4355 8.99487 17.648C8.7102 18.0246 8.46617 18.4313 8.26714 18.8614L8.22533 18.9516C7.89781 19.6595 7.44767 20.3047 6.89586 20.8565Z" fill="url(#paint2_linear_6345_2791)"/>
<path d="M7.07268 19.1762C7.26374 19.3673 7.26374 19.6771 7.07268 19.8682L4.16071 22.7801C3.96964 22.9712 3.6598 22.9712 3.46874 22.7801C3.27767 22.5891 3.27767 22.2793 3.46874 22.0882L6.38071 19.1762C6.57182 18.9852 6.88161 18.9852 7.07268 19.1762Z" fill="url(#paint3_linear_6345_2791)"/>
<path d="M7.15937 16.8405C7.35043 17.0316 7.35043 17.3415 7.15937 17.5325L2.47955 22.2123C2.28849 22.4034 1.97865 22.4034 1.78758 22.2123C1.59652 22.0213 1.59652 21.7114 1.78758 21.5204L6.4674 16.8405C6.65846 16.6495 6.96826 16.6495 7.15937 16.8405Z" fill="url(#paint4_linear_6345_2791)"/>
<path d="M4.82389 16.9274C5.01496 17.1185 5.01496 17.4283 4.82389 17.6194L1.91193 20.5313C1.72086 20.7224 1.41102 20.7224 1.21996 20.5313C1.02889 20.3403 1.02889 20.0304 1.21996 19.8394L4.13193 16.9274C4.32304 16.7363 4.63278 16.7363 4.82389 16.9274Z" fill="url(#paint5_linear_6345_2791)"/>
<path d="M6.89575 20.8565L6.34872 21.4036V20.5922V19.2084V18.3436L6.34839 16.9595V15.0078C6.349 15.0073 6.34965 15.0069 6.35031 15.0064C6.56354 14.8456 6.86247 14.8651 7.05128 15.0539L8.94615 16.9488C9.1345 17.1371 9.15526 17.4355 8.99467 17.6479C8.71 18.0246 8.46597 18.4313 8.26694 18.8614L8.22512 18.9515C7.8977 19.6595 7.44756 20.3047 6.89575 20.8565Z" fill="url(#paint6_linear_6345_2791)"/>
<path d="M8.4187 13.8538L8.42789 13.8632V16.7704L8.6925 17.035L11.9467 13.7807L10.2193 12.0533L8.4187 13.8538Z" fill="url(#paint7_linear_6345_2791)"/>
<path d="M8.85023 17.582L6.41817 15.1499C6.2317 14.9634 6.2317 14.6612 6.41817 14.4748C6.60464 14.2883 6.90689 14.2883 7.09331 14.4748L9.52537 16.9068C9.71184 17.0933 9.71184 17.3955 9.52537 17.582C9.33895 17.7684 9.03665 17.7684 8.85023 17.582Z" fill="url(#paint8_linear_6345_2791)"/>
<path d="M21.4651 2.53548C18.0851 -0.844489 12.6054 -0.844489 9.22541 2.53548C5.84544 5.91545 5.84544 11.3952 9.22541 14.7752C12.6054 18.1551 18.0851 18.1551 21.4651 14.7752C24.8451 11.3952 24.8451 5.9154 21.4651 2.53548ZM11.5883 12.4123C9.51322 10.3372 9.51294 6.97309 11.588 4.89803C13.663 2.82296 17.0275 2.82296 19.1025 4.89803C21.1776 6.97309 21.1776 10.3375 19.1025 12.4126C17.0275 14.4877 13.6634 14.4873 11.5883 12.4123Z" fill="url(#paint9_linear_6345_2791)"/>
<path d="M10.9398 13.0602C13.3729 15.4933 17.3175 15.4933 19.7506 13.0602C22.1836 10.6271 22.1837 6.68249 19.7506 4.24944C17.3175 1.81635 13.3728 1.81635 10.9398 4.24944C8.50675 6.68254 8.5067 10.6271 10.9398 13.0602ZM19.1021 4.89786C21.1772 6.97293 21.1775 10.3371 19.1025 12.4121C17.0274 14.4872 13.6629 14.4872 11.5879 12.4121C9.51282 10.3371 9.51282 6.9726 11.5879 4.89754C13.6629 2.82247 17.0271 2.8228 19.1021 4.89786Z" fill="url(#paint10_linear_6345_2791)"/>
</g>
<defs>
<linearGradient id="paint0_linear_6345_2791" x1="8.89647" y1="13.985" x2="10.7788" y2="15.8674" gradientUnits="userSpaceOnUse">
<stop stop-color="#F2F2F2"/>
<stop offset="1" stop-color="#C3C3C3"/>
</linearGradient>
<linearGradient id="paint1_linear_6345_2791" x1="0.460132" y1="22.4267" x2="3.04483" y2="25.0116" gradientUnits="userSpaceOnUse">
<stop stop-color="#A7F3CE"/>
<stop offset="1" stop-color="#61DB99"/>
</linearGradient>
<linearGradient id="paint2_linear_6345_2791" x1="3.52578" y1="18.4573" x2="8.20925" y2="23.1409" gradientUnits="userSpaceOnUse">
<stop stop-color="#777777"/>
<stop offset="1" stop-color="#3B4041"/>
</linearGradient>
<linearGradient id="paint3_linear_6345_2791" x1="5.45749" y1="21.1651" x2="4.59351" y2="20.3011" gradientUnits="userSpaceOnUse">
<stop stop-color="#777777"/>
<stop offset="1" stop-color="#3B4041"/>
</linearGradient>
<linearGradient id="paint4_linear_6345_2791" x1="4.66016" y1="19.7134" x2="3.79665" y2="18.8494" gradientUnits="userSpaceOnUse">
<stop stop-color="#777777"/>
<stop offset="1" stop-color="#3B4041"/>
</linearGradient>
<linearGradient id="paint5_linear_6345_2791" x1="3.20861" y1="18.9163" x2="2.34496" y2="18.0523" gradientUnits="userSpaceOnUse">
<stop stop-color="#777777"/>
<stop offset="1" stop-color="#3B4041"/>
</linearGradient>
<linearGradient id="paint6_linear_6345_2791" x1="6.72937" y1="18.6369" x2="8.60368" y2="14.0887" gradientUnits="userSpaceOnUse">
<stop stop-color="#3B4041" stop-opacity="0"/>
<stop offset="1" stop-color="#3B4041"/>
</linearGradient>
<linearGradient id="paint7_linear_6345_2791" x1="9.31272" y1="15.6652" x2="10.8463" y2="12.4073" gradientUnits="userSpaceOnUse">
<stop stop-color="#3B4041" stop-opacity="0"/>
<stop offset="1" stop-color="#3B4041"/>
</linearGradient>
<linearGradient id="paint8_linear_6345_2791" x1="6.96545" y1="15.0225" x2="10.3513" y2="18.4078" gradientUnits="userSpaceOnUse">
<stop stop-color="#777777"/>
<stop offset="1" stop-color="#3B4041"/>
</linearGradient>
<linearGradient id="paint9_linear_6345_2791" x1="11.382" y1="4.69266" x2="24.7181" y2="18.0289" gradientUnits="userSpaceOnUse">
<stop stop-color="#A7F3CE"/>
<stop offset="1" stop-color="#61DB99"/>
</linearGradient>
<linearGradient id="paint10_linear_6345_2791" x1="18.1977" y1="11.508" x2="8.59747" y2="1.90781" gradientUnits="userSpaceOnUse">
<stop stop-color="#A7F3CE"/>
<stop offset="1" stop-color="#61DB99"/>
</linearGradient>
<clipPath id="clip0_6345_2791">
<rect width="24" height="24" fill="white"/>
</clipPath>
</defs>
</svg>
