<svg width="109" height="30" viewBox="0 0 109 30" fill="none" xmlns="http://www.w3.org/2000/svg">
<path d="M4.74898 5.71498L3.43524 5.48291L0.00014518 24.9287L1.31388 25.1608L4.74898 5.71498Z" fill="white"/>
<path d="M6.67556 6.05507L5.36182 5.823L1.92672 25.2688L3.24046 25.5009L6.67556 6.05507Z" fill="white"/>
<path d="M8.64675 6.40297L7.33301 6.1709L3.89791 25.6167L5.21165 25.8488L8.64675 6.40297Z" fill="white"/>
<path d="M9.90065 10.5538L8.58691 10.3218L5.82487 25.9575L7.13861 26.1895L9.90065 10.5538Z" fill="white"/>
<path d="M12.5452 7.09169L11.2314 6.85962L7.79635 26.3054L9.11009 26.5375L12.5452 7.09169Z" fill="white"/>
<path d="M9.27512 10.2622C9.54112 10.3092 9.78097 10.2101 9.81086 10.041C9.84075 9.87177 9.64935 9.69652 9.38336 9.64953C9.11736 9.60254 8.8775 9.70161 8.84762 9.8708C8.81773 10.04 9.00913 10.2152 9.27512 10.2622Z" fill="white"/>
<path d="M8.9402 9.34562L9.88909 9.51324L10.9078 3.74617C10.9498 3.53292 11.0335 3.33005 11.1541 3.14928C11.2747 2.9685 11.4299 2.8134 11.6107 2.69283C11.7915 2.57225 11.9944 2.48859 12.2077 2.44672C12.4209 2.40485 12.6403 2.40558 12.8533 2.44883C14.5134 2.68182 19.2771 3.58359 19.2771 3.58359C19.7471 3.69221 20.171 3.94618 20.4885 4.30944C20.7354 4.6499 20.8389 5.07359 20.7768 5.48952L19.7581 11.2566L20.6924 11.4216L21.7111 5.65456C21.7523 5.29239 21.7201 4.92559 21.6163 4.57617C21.5125 4.22675 21.3392 3.9019 21.1069 3.62099C20.9136 3.35141 20.6647 3.12644 20.377 2.96133C20.0892 2.79621 19.7694 2.69478 19.4391 2.66388L13.0158 1.52919C12.2513 1.46204 11.4873 1.66225 10.8541 2.09567C10.5981 2.29732 10.3846 2.54766 10.2258 2.83221C10.067 3.11675 9.96606 3.42988 9.92883 3.7536L8.9402 9.34562Z" fill="white"/>
<path d="M27.1745 9.67616L25.8607 9.44409L22.4256 28.8899L23.7394 29.122L27.1745 9.67616Z" fill="white"/>
<path d="M25.2465 9.33681L23.9328 9.10474L20.4977 28.5505L21.8114 28.7826L25.2465 9.33681Z" fill="white"/>
<path d="M23.2767 8.9872L21.963 8.75513L18.5279 28.2009L19.8416 28.433L23.2767 8.9872Z" fill="white"/>
<path d="M20.6759 12.4574L19.3622 12.2253L16.6001 27.861L17.9139 28.0931L20.6759 12.4574Z" fill="white"/>
<path d="M19.3778 8.2997L18.064 8.06763L14.6289 27.5134L15.9427 27.7455L19.3778 8.2997Z" fill="white"/>
<path d="M20.0501 12.1655C20.3161 12.2125 20.556 12.1135 20.5859 11.9443C20.6158 11.7751 20.4244 11.5998 20.1584 11.5529C19.8924 11.5059 19.6525 11.6049 19.6226 11.7741C19.5928 11.9433 19.7842 12.1186 20.0501 12.1655Z" fill="white"/>
<path d="M24.5518 16.8453L3.44159 13.1162L2.84589 16.4884L23.9561 20.2175L24.5518 16.8453Z" fill="white"/>
<path d="M5.63269 15.9112L5.35109 15.8614L5.45456 15.2757L4.90545 15.1787L4.80198 15.7644L4.52039 15.7147L4.76181 14.348L5.04341 14.3978L4.94558 14.9516L5.49469 15.0486L5.59252 14.4948L5.87411 14.5445L5.63269 15.9112ZM6.14801 16.0022L5.8758 15.9541L6.05521 14.9385L6.32742 14.9866L6.14801 16.0022ZM6.08568 14.6729C6.09287 14.6322 6.11223 14.6011 6.14378 14.5796C6.17596 14.5581 6.21552 14.5516 6.26245 14.5599C6.30875 14.568 6.34335 14.5877 6.36624 14.6189C6.38914 14.65 6.39699 14.6859 6.3898 14.7266C6.38251 14.7679 6.36246 14.7992 6.32966 14.8205C6.29748 14.8419 6.25855 14.8486 6.21287 14.8405C6.16719 14.8325 6.13259 14.8128 6.10907 14.7815C6.08618 14.7504 6.07838 14.7142 6.08568 14.6729ZM6.83006 15.9165C6.88012 15.9254 6.92323 15.9188 6.95938 15.8968C6.99553 15.8748 7.01827 15.841 7.02759 15.7956L7.28196 15.8405C7.26918 15.9092 7.23924 15.9691 7.19215 16.0202C7.14517 16.0706 7.08664 16.1061 7.01654 16.1266C6.94719 16.1466 6.87371 16.1498 6.79612 16.1361C6.65094 16.1104 6.54455 16.0442 6.47695 15.9374C6.40945 15.83 6.39008 15.6949 6.41882 15.5322L6.42197 15.5144C6.4496 15.3579 6.51327 15.2404 6.61297 15.1619C6.71267 15.0834 6.8351 15.0569 6.98028 15.0826C7.10731 15.105 7.20259 15.1593 7.26611 15.2453C7.33037 15.3309 7.35251 15.4339 7.33254 15.5542L7.07816 15.5093C7.0862 15.4565 7.07744 15.4111 7.0519 15.373C7.02647 15.3343 6.9881 15.3104 6.93679 15.3014C6.87359 15.2902 6.82162 15.3049 6.7809 15.3455C6.74092 15.3855 6.71181 15.4572 6.69357 15.5604L6.6886 15.5886C6.67014 15.6931 6.67283 15.771 6.69667 15.8223C6.72052 15.8736 6.76498 15.905 6.83006 15.9165ZM7.42395 15.6943C7.44175 15.5935 7.47701 15.5072 7.52973 15.4352C7.58246 15.3632 7.64893 15.312 7.72915 15.2816C7.80999 15.2514 7.8986 15.2448 7.99496 15.2618C8.13201 15.286 8.2363 15.3477 8.30784 15.4468C8.38001 15.546 8.40839 15.6685 8.39298 15.8142L8.38259 15.8839C8.35506 16.0398 8.28946 16.1572 8.18579 16.2364C8.08223 16.3149 7.95723 16.3412 7.8108 16.3153C7.66437 16.2894 7.55564 16.2218 7.48462 16.1125C7.41422 16.0033 7.39328 15.8679 7.42179 15.7065L7.42395 15.6943ZM7.69174 15.7619C7.67472 15.8583 7.67982 15.9353 7.70705 15.993C7.73439 16.0501 7.78185 16.0847 7.84943 16.0966C7.91514 16.1082 7.97087 16.0922 8.01664 16.0487C8.06251 16.0045 8.09523 15.9271 8.1148 15.8163C8.13149 15.7218 8.12596 15.6453 8.09822 15.5869C8.07047 15.5284 8.02312 15.4933 7.95616 15.4815C7.88983 15.4697 7.83393 15.4866 7.78846 15.5322C7.7431 15.5771 7.71086 15.6536 7.69174 15.7619ZM8.74807 16.4615L8.47587 16.4134L8.73055 14.9717L9.00276 15.0197L8.74807 16.4615ZM9.5989 16.5053C9.51757 16.5749 9.41777 16.5992 9.2995 16.5783C9.19062 16.559 9.11292 16.5131 9.0664 16.4403C9.02051 16.3677 9.00761 16.2709 9.02769 16.1499L9.14525 15.4844L9.41652 15.5323L9.30062 16.1884C9.28194 16.2942 9.32078 16.3555 9.41715 16.3726C9.50914 16.3888 9.57798 16.3681 9.62367 16.3103L9.75068 15.5913L10.0229 15.6394L9.84348 16.655L9.58817 16.6099L9.5989 16.5053ZM10.4819 15.7205L10.4703 15.8355C10.5578 15.76 10.6629 15.7331 10.7856 15.7548C10.9164 15.7779 10.997 15.8454 11.0276 15.9572C11.1172 15.8666 11.228 15.8329 11.36 15.8562C11.4702 15.8757 11.5464 15.9224 11.5889 15.9964C11.6314 16.0697 11.6413 16.1708 11.6185 16.2997L11.504 16.9483L11.2317 16.9003L11.3462 16.2526C11.3563 16.195 11.3525 16.1511 11.3346 16.1208C11.3168 16.0899 11.2794 16.0695 11.2225 16.0594C11.1412 16.045 11.078 16.0739 11.033 16.146L10.9107 16.8435L10.6395 16.7956L10.7537 16.1489C10.7641 16.0901 10.76 16.0455 10.7415 16.0151C10.723 15.9847 10.6859 15.9646 10.6302 15.9548C10.5532 15.9412 10.4919 15.9633 10.4462 16.021L10.3194 16.7391L10.0481 16.6912L10.2275 15.6755L10.4819 15.7205ZM12.1424 16.0138L12.1301 16.1326C12.2187 16.0547 12.324 16.0265 12.446 16.0481C12.5537 16.0671 12.6282 16.1129 12.6696 16.1853C12.711 16.2578 12.7212 16.3571 12.7002 16.4831L12.5843 17.1392L12.3131 17.0913L12.4278 16.4417C12.438 16.3842 12.4328 16.3403 12.4123 16.3103C12.3919 16.2795 12.3526 16.2591 12.2944 16.2488C12.2181 16.2353 12.1551 16.2577 12.1054 16.3161L11.9789 17.0322L11.7076 16.9843L11.8871 15.9687L12.1424 16.0138Z" fill="#FA0000"/>
<path d="M44.8673 22.3574H42.3516V17.1246H37.4458V22.3574H34.93V10.1475H37.4458V15.0952H42.3516V10.1475H44.8673V22.3574ZM49.4712 22.3574H47.0393V13.2839H49.4712V22.3574ZM46.8967 10.9358C46.8967 10.5724 47.0169 10.2733 47.2573 10.0385C47.5033 9.8037 47.8359 9.6863 48.2552 9.6863C48.6689 9.6863 48.9988 9.8037 49.2448 10.0385C49.4908 10.2733 49.6138 10.5724 49.6138 10.9358C49.6138 11.3048 49.488 11.6067 49.2364 11.8415C48.9904 12.0763 48.6634 12.1937 48.2552 12.1937C47.8471 12.1937 47.5173 12.0763 47.2657 11.8415C47.0197 11.6067 46.8967 11.3048 46.8967 10.9358ZM55.2491 20.5712C55.6963 20.5712 56.0597 20.4482 56.3393 20.2022C56.6188 19.9563 56.7642 19.6292 56.7753 19.2211H59.0479C59.0423 19.8361 58.8746 20.4007 58.5448 20.915C58.2149 21.4238 57.7621 21.8207 57.1862 22.1058C56.616 22.3854 55.9843 22.5251 55.291 22.5251C53.994 22.5251 52.9709 22.1142 52.2218 21.2924C51.4726 20.465 51.0981 19.3245 51.0981 17.871V17.7116C51.0981 16.314 51.4698 15.1986 52.2134 14.3656C52.9569 13.5326 53.9772 13.1161 55.2743 13.1161C56.4091 13.1161 57.3176 13.4404 57.9997 14.0889C58.6873 14.7318 59.0367 15.59 59.0479 16.6634H56.7753C56.7642 16.1938 56.6188 15.8136 56.3393 15.5229C56.0597 15.2266 55.6908 15.0784 55.2323 15.0784C54.6677 15.0784 54.24 15.2853 53.9493 15.699C53.6642 16.1071 53.5216 16.7724 53.5216 17.6949V17.9464C53.5216 18.8801 53.6642 19.5509 53.9493 19.959C54.2344 20.3672 54.6677 20.5712 55.2491 20.5712ZM60.0542 17.7368C60.0542 16.8367 60.2275 16.0344 60.5742 15.33C60.9208 14.6256 61.4183 14.0805 62.0669 13.6948C62.721 13.309 63.4785 13.1161 64.3394 13.1161C65.5638 13.1161 66.5617 13.4907 67.3332 14.2399C68.1103 14.989 68.5436 16.0065 68.633 17.2923L68.6498 17.9129C68.6498 19.3049 68.2613 20.4231 67.4842 21.2673C66.7071 22.1058 65.6644 22.5251 64.3562 22.5251C63.048 22.5251 62.0026 22.1058 61.2199 21.2673C60.4428 20.4287 60.0542 19.2882 60.0542 17.8458V17.7368ZM62.4778 17.9129C62.4778 18.7738 62.6399 19.4335 62.9641 19.892C63.2884 20.3448 63.7524 20.5712 64.3562 20.5712C64.9432 20.5712 65.4017 20.3476 65.7315 19.9003C66.0613 19.4475 66.2263 18.7263 66.2263 17.7368C66.2263 16.8926 66.0613 16.2385 65.7315 15.7745C65.4017 15.3105 64.9376 15.0784 64.3394 15.0784C63.7468 15.0784 63.2884 15.3105 62.9641 15.7745C62.6399 16.2329 62.4778 16.9457 62.4778 17.9129ZM72.7002 22.3574H70.2683V9.47665H72.7002V22.3574ZM80.1385 21.435C79.5403 22.1618 78.7129 22.5251 77.6563 22.5251C76.6835 22.5251 75.94 22.2456 75.4256 21.6865C74.9169 21.1275 74.6569 20.3085 74.6457 19.2295V13.2839H77.0693V19.1456C77.0693 20.0904 77.4997 20.5628 78.3607 20.5628C79.1825 20.5628 79.7472 20.2777 80.0546 19.7075V13.2839H82.4866V22.3574H80.2056L80.1385 21.435ZM86.5873 13.2839L86.6628 14.2986C87.3057 13.5103 88.175 13.1161 89.2708 13.1161C90.4392 13.1161 91.2415 13.5774 91.6775 14.4998C92.3149 13.5774 93.2233 13.1161 94.403 13.1161C95.3869 13.1161 96.1193 13.4041 96.6001 13.9799C97.0809 14.5501 97.3213 15.4111 97.3213 16.5628V22.3574H94.8893V16.5711C94.8893 16.0568 94.7887 15.6822 94.5874 15.4474C94.3862 15.207 94.0312 15.0868 93.5224 15.0868C92.7957 15.0868 92.2925 15.4334 92.013 16.1267L92.0214 22.3574H89.5978V16.5795C89.5978 16.054 89.4944 15.6738 89.2875 15.439C89.0807 15.2042 88.7285 15.0868 88.2309 15.0868C87.5433 15.0868 87.0457 15.372 86.7382 15.9422V22.3574H84.3147V13.2839H86.5873ZM101.422 13.2839L101.497 14.3321C102.146 13.5215 103.015 13.1161 104.105 13.1161C105.067 13.1161 105.783 13.3985 106.252 13.9631C106.722 14.5278 106.962 15.372 106.973 16.4957V22.3574H104.55V16.5544C104.55 16.04 104.438 15.6683 104.214 15.439C103.991 15.2042 103.619 15.0868 103.099 15.0868C102.417 15.0868 101.906 15.3775 101.565 15.959V22.3574H99.141V13.2839H101.422Z" fill="white"/>
</svg>
