<svg width="549" height="588" viewBox="0 0 549 588" fill="none" xmlns="http://www.w3.org/2000/svg">
<rect width="549" height="588" rx="10" transform="matrix(-1 0 0 1 549 0)" fill="#E9F2FF"/>
<path d="M154.428 168.298L137.578 165.322L93.5196 414.731L110.369 417.708L154.428 168.298Z" fill="#0B2253"/>
<path d="M179.138 172.662L162.288 169.685L118.23 419.095L135.079 422.072L179.138 172.662Z" fill="#0B2253"/>
<path d="M204.428 177.124L187.578 174.147L143.52 423.557L160.37 426.533L204.428 177.124Z" fill="#0B2253"/>
<path d="M220.499 230.364L203.649 227.388L168.224 427.929L185.074 430.906L220.499 230.364Z" fill="#0B2253"/>
<path d="M254.409 185.957L237.559 182.981L193.501 432.391L210.351 435.367L254.409 185.957Z" fill="#0B2253"/>
<path d="M212.469 226.621C215.88 227.224 218.956 225.953 219.34 223.783C219.723 221.613 217.268 219.365 213.857 218.763C210.445 218.16 207.369 219.431 206.985 221.601C206.602 223.771 209.057 226.018 212.469 226.621Z" fill="#0B2253"/>
<path d="M208.19 214.867L220.36 217.017L233.427 143.049C233.965 140.314 235.038 137.712 236.585 135.393C238.132 133.074 240.123 131.085 242.442 129.539C244.761 127.992 247.363 126.919 250.098 126.382C252.833 125.845 255.648 125.854 258.379 126.409C279.671 129.398 340.77 140.964 340.77 140.964C346.799 142.357 352.235 145.614 356.307 150.273C359.474 154.64 360.801 160.074 360.005 165.409L346.939 239.377L358.922 241.493L371.988 167.526C372.517 162.88 372.104 158.176 370.772 153.694C369.44 149.213 367.218 145.046 364.239 141.443C361.759 137.986 358.567 135.1 354.877 132.982C351.186 130.865 347.085 129.564 342.848 129.167L260.463 114.614C250.658 113.753 240.859 116.321 232.737 121.88C229.454 124.466 226.715 127.677 224.679 131.326C222.642 134.976 221.348 138.992 220.87 143.144L208.19 214.867Z" fill="#0B2253"/>
<path d="M442.025 219.103L425.175 216.126L381.117 465.536L397.966 468.512L442.025 219.103Z" fill="#0B2253"/>
<path d="M417.314 214.748L400.464 211.772L356.406 461.182L373.256 464.158L417.314 214.748Z" fill="#0B2253"/>
<path d="M392.024 210.268L375.174 207.292L331.116 456.701L347.966 459.678L392.024 210.268Z" fill="#0B2253"/>
<path d="M358.676 254.778L341.826 251.801L306.4 452.343L323.25 455.32L358.676 254.778Z" fill="#0B2253"/>
<path d="M342.044 201.45L325.194 198.474L281.136 447.883L297.986 450.86L342.044 201.45Z" fill="#0B2253"/>
<path d="M350.666 251.035C354.078 251.638 357.154 250.367 357.538 248.197C357.921 246.027 355.466 243.779 352.055 243.177C348.643 242.574 345.567 243.845 345.183 246.015C344.8 248.185 347.255 250.432 350.666 251.035Z" fill="#0B2253"/>
<path d="M408.413 311.058L137.656 263.229L130.016 306.48L400.773 354.309L408.413 311.058Z" fill="#0B2253"/>
<path d="M166.221 296.467L162.609 295.829L163.936 288.317L156.893 287.073L155.566 294.585L151.955 293.947L155.051 276.418L158.663 277.056L157.408 284.159L164.451 285.403L165.706 278.3L169.317 278.938L166.221 296.467ZM172.83 297.635L169.339 297.018L171.64 283.992L175.131 284.608L172.83 297.635ZM172.031 280.585C172.123 280.063 172.372 279.664 172.776 279.388C173.189 279.113 173.696 279.029 174.298 279.135C174.892 279.24 175.336 279.492 175.629 279.892C175.923 280.291 176.024 280.752 175.932 281.274C175.838 281.803 175.581 282.205 175.16 282.478C174.747 282.753 174.248 282.838 173.662 282.735C173.076 282.631 172.633 282.379 172.331 281.978C172.037 281.579 171.937 281.114 172.031 280.585ZM181.578 296.536C182.22 296.649 182.773 296.565 183.237 296.282C183.701 296 183.992 295.567 184.112 294.984L187.374 295.561C187.21 296.442 186.826 297.21 186.222 297.865C185.62 298.512 184.869 298.967 183.97 299.23C183.081 299.487 182.138 299.527 181.143 299.351C179.281 299.022 177.916 298.173 177.049 296.803C176.184 295.425 175.935 293.693 176.304 291.606L176.344 291.378C176.699 289.371 177.515 287.864 178.794 286.857C180.073 285.85 181.643 285.51 183.505 285.839C185.134 286.127 186.356 286.823 187.171 287.927C187.995 289.024 188.279 290.345 188.023 291.889L184.76 291.312C184.863 290.635 184.751 290.053 184.424 289.565C184.097 289.068 183.605 288.762 182.947 288.646C182.137 288.503 181.47 288.691 180.948 289.211C180.435 289.725 180.062 290.644 179.828 291.968L179.764 292.329C179.527 293.67 179.562 294.669 179.867 295.327C180.173 295.985 180.744 296.388 181.578 296.536ZM189.195 293.685C189.424 292.393 189.876 291.285 190.552 290.362C191.228 289.438 192.081 288.782 193.11 288.393C194.147 288.005 195.283 287.92 196.519 288.138C198.277 288.449 199.615 289.24 200.532 290.511C201.458 291.783 201.822 293.354 201.624 295.223L201.491 296.118C201.138 298.116 200.296 299.623 198.967 300.638C197.638 301.644 196.035 301.982 194.157 301.65C192.279 301.318 190.885 300.451 189.974 299.049C189.071 297.648 188.802 295.912 189.168 293.841L189.195 293.685ZM192.63 294.552C192.412 295.788 192.477 296.777 192.826 297.517C193.177 298.249 193.786 298.692 194.653 298.845C195.495 298.994 196.21 298.789 196.797 298.231C197.386 297.664 197.805 296.671 198.056 295.25C198.27 294.038 198.199 293.057 197.844 292.308C197.488 291.558 196.88 291.107 196.022 290.955C195.171 290.805 194.454 291.022 193.871 291.606C193.289 292.182 192.875 293.164 192.63 294.552ZM206.179 303.526L202.687 302.909L205.954 284.417L209.445 285.034L206.179 303.526ZM217.091 304.088C216.048 304.979 214.768 305.291 213.251 305.023C211.855 304.776 210.858 304.187 210.261 303.254C209.673 302.322 209.507 301.08 209.765 299.528L211.273 290.993L214.752 291.607L213.265 300.023C213.026 301.379 213.524 302.166 214.76 302.385C215.94 302.593 216.823 302.327 217.409 301.586L219.038 292.364L222.529 292.981L220.228 306.007L216.953 305.429L217.091 304.088ZM228.416 294.021L228.267 295.497C229.39 294.528 230.738 294.183 232.311 294.461C233.989 294.757 235.023 295.623 235.416 297.058C236.564 295.895 237.986 295.463 239.679 295.762C241.092 296.012 242.07 296.611 242.614 297.56C243.16 298.5 243.287 299.797 242.995 301.451L241.525 309.77L238.034 309.153L239.501 300.846C239.632 300.107 239.582 299.544 239.353 299.156C239.125 298.76 238.646 298.497 237.915 298.368C236.872 298.184 236.062 298.554 235.485 299.478L233.916 308.425L230.437 307.811L231.902 299.516C232.036 298.761 231.984 298.189 231.746 297.8C231.509 297.41 231.033 297.153 230.319 297.026C229.331 296.852 228.545 297.135 227.959 297.876L226.332 307.086L222.853 306.471L225.154 293.445L228.416 294.021ZM249.713 297.783L249.556 299.307C250.692 298.308 252.043 297.947 253.608 298.223C254.989 298.467 255.945 299.054 256.476 299.983C257.007 300.913 257.138 302.186 256.869 303.802L255.382 312.217L251.903 311.603L253.374 303.272C253.505 302.533 253.439 301.971 253.176 301.585C252.914 301.192 252.41 300.929 251.664 300.797C250.685 300.624 249.877 300.912 249.24 301.66L247.617 310.846L244.138 310.231L246.439 297.205L249.713 297.783Z" fill="#FA0000"/>
</svg>
