<svg width="40" height="40" viewBox="0 0 40 40" fill="none" xmlns="http://www.w3.org/2000/svg">
<g clip-path="url(#clip0_6364_1594)">
<path d="M18.5261 7.83887C18.1926 7.83887 17.9221 8.10931 17.9221 8.4429C17.9221 8.77648 18.1926 9.04693 18.5261 9.04693H24.5664V7.83887H18.5261Z" fill="#323752"/>
<path d="M27.5749 19.1379C28.5099 18.4573 28.8125 17.1974 28.3126 16.1545L25.7743 10.8591V6.02686C24.4399 6.02686 23.3582 7.10855 23.3582 8.44297V11.4082L26.0304 21.7105H27.5748V19.1379H27.5749Z" fill="#FF3E3A"/>
<path d="M26.4305 17.818L23.3582 11.4082V25.5169H24.5662L26.0304 20.5025C26.7074 19.7805 26.8583 18.7105 26.4305 17.818Z" fill="#FF6053"/>
<path d="M18.8519 25.5166C17.5123 25.5166 16.2959 24.683 15.7877 23.4284C15.5072 22.7358 15.4843 21.9656 15.6896 21.2471L16.8859 17.0602V15.8522H6.0739V17.0602C2.64664 19.1555 0.287785 23.0364 0.00244141 27.2751L3.34602 27.7116L7.22139 25.5166L14.4697 27.9327H21.9396C23.1829 27.9327 24.2261 26.9914 24.3488 25.7541V25.5166H18.8519V25.5166Z" fill="#FF3E3A"/>
<path d="M33.9598 17.0604C28.7949 17.0604 24.4599 20.6807 23.3583 25.5168C23.2598 25.9509 23.1857 26.3946 23.1409 26.8467C23.0797 27.4637 22.5596 27.9329 21.9397 27.9329H24.3706C24.9847 27.9329 25.4936 27.4713 25.5709 26.8621C26.0971 22.7162 29.6368 19.4972 33.9185 19.4767C34.5673 19.4736 35.129 18.9868 35.1658 18.3391C35.2056 17.6398 34.6503 17.0604 33.9598 17.0604Z" fill="#CC3245"/>
<path d="M28.1904 8.44282C28.1904 9.49584 28.8641 10.3916 29.804 10.7224C30.196 10.8604 30.6066 10.5669 30.6066 10.1513V6.73422C30.6066 6.31865 30.1959 6.02518 29.804 6.16314C28.864 6.49406 28.1904 7.3898 28.1904 8.44282Z" fill="#ACD5DF"/>
<path d="M33.9597 33.9733C37.2957 33.9733 40 31.2689 40 27.933C40 24.597 37.2957 21.8927 33.9597 21.8927C30.6238 21.8927 27.9194 24.597 27.9194 27.933C27.9194 31.2689 30.6238 33.9733 33.9597 33.9733Z" fill="#636DA4"/>
<path d="M33.9598 25.5166L32.7517 27.9327L33.9598 30.3488C35.2942 30.3488 36.3759 29.2671 36.3759 27.9327C36.3759 26.5983 35.2942 25.5166 33.9598 25.5166Z" fill="#C5F3FF"/>
<path d="M31.5437 27.9327C31.5437 29.2671 32.6254 30.3488 33.9598 30.3488V25.5166C32.6255 25.5166 31.5437 26.5983 31.5437 27.9327Z" fill="white"/>
<path d="M7.22144 33.9733C10.5574 33.9733 13.2617 31.2689 13.2617 27.933C13.2617 24.597 10.5574 21.8927 7.22144 21.8927C3.88548 21.8927 1.18115 24.597 1.18115 27.933C1.18115 31.2689 3.88548 33.9733 7.22144 33.9733Z" fill="#636DA4"/>
<path d="M7.22148 25.5166L6.01343 27.9327L7.22148 30.3488C8.5559 30.3488 9.6376 29.2671 9.6376 27.9327C9.6376 26.5983 8.5559 25.5166 7.22148 25.5166Z" fill="#C5F3FF"/>
<path d="M4.80542 27.9327C4.80542 29.2671 5.88711 30.3488 7.22154 30.3488V25.5166C5.8872 25.5166 4.80542 26.5983 4.80542 27.9327Z" fill="white"/>
<path d="M7.22144 20.6844L12.0537 27.9328H14.4698C14.4698 23.9296 11.2246 20.6844 7.22144 20.6844Z" fill="#FF6053"/>
<path d="M7.22092 20.6844C3.43946 20.6844 0.334268 23.5802 0.00197188 27.2752C-0.0297598 27.6284 0.249543 27.9328 0.604229 27.9328H12.0532C12.0532 23.9296 9.88968 20.6844 7.22092 20.6844Z" fill="#FF7C59"/>
<path d="M16.3425 14.6443L13.9563 14.645L16.3425 17.0604H18.7586C18.7586 15.726 17.6768 14.6443 16.3425 14.6443Z" fill="#4A527B"/>
<path d="M13.9564 14.6453H9.12415H9.09444L6.83247 13.6028C6.60173 13.4962 6.34498 13.4364 6.07405 13.4364C5.07329 13.4364 4.26196 14.2477 4.26196 15.2485C4.26196 16.2492 5.07329 17.0606 6.07405 17.0606H16.3425C16.3425 15.7363 15.2769 14.6614 13.9564 14.6453Z" fill="#636DA4"/>
<path d="M13.4269 2.00994H11.4917V1.00931C11.4917 0.926514 11.5588 0.859375 11.6416 0.859375H13.277C13.3598 0.859375 13.4269 0.926514 13.4269 1.00931V2.00994Z" fill="#FFD064"/>
<path d="M13.277 0.859375H12.7317C12.8145 0.859375 12.8816 0.926514 12.8816 1.00931V2.00994H13.4269V1.00931C13.4269 0.926514 13.3598 0.859375 13.277 0.859375V0.859375Z" fill="#FFC250"/>
<path d="M12.4836 9.21454C14.5572 9.21454 16.2382 7.53355 16.2382 5.45993C16.2382 3.38632 14.5572 1.70532 12.4836 1.70532C10.41 1.70532 8.729 3.38632 8.729 5.45993C8.729 7.53355 10.41 9.21454 12.4836 9.21454Z" fill="#F9F6F6"/>
<path d="M12.4836 1.70532C12.3613 1.70532 12.2404 1.71136 12.1211 1.72281C14.0246 1.90521 15.5132 3.50864 15.5132 5.45993C15.5132 7.41122 14.0246 9.01466 12.1211 9.19706C12.2404 9.2085 12.3613 9.21454 12.4836 9.21454C14.5572 9.21454 16.2382 7.53355 16.2382 5.45993C16.2382 3.38634 14.5572 1.70532 12.4836 1.70532Z" fill="#DDDAEC"/>
<path d="M11.7586 14.2996C11.7586 14.4707 11.6199 14.6093 11.4489 14.6093H3.27845C3.1074 14.6093 2.96875 14.4707 2.96875 14.2996V6.6825C2.96875 6.51146 3.1074 6.3728 3.27845 6.3728H11.4489C11.6199 6.3728 11.7586 6.51146 11.7586 6.6825V14.2996H11.7586Z" fill="#FFD064"/>
<path d="M10.824 6.3728C10.9922 6.3728 11.1286 6.5092 11.1286 6.67742V14.6093H11.4488C11.6198 14.6093 11.7585 14.4707 11.7585 14.2996V6.6825C11.7585 6.51146 11.6198 6.3728 11.4488 6.3728H10.824Z" fill="#FFC250"/>
<path d="M9.65781 13.339C9.44068 13.5503 9.09331 13.5456 8.88195 13.3285L8.75154 13.1945C8.73916 13.1818 8.73943 13.1614 8.75216 13.149L9.63659 12.2882C9.64282 12.2821 9.64632 12.2738 9.64632 12.2651C9.64632 12.2564 9.6428 12.2481 9.63659 12.2421L8.75216 11.3812C8.73943 11.3688 8.73916 11.3485 8.75154 11.3357L8.88195 11.2017C9.09331 10.9846 9.44066 10.9799 9.65781 11.1913L10.4738 11.9856C10.5161 12.0268 10.5506 12.076 10.5708 12.1315C10.6244 12.2789 10.5844 12.437 10.4784 12.5402L9.65781 13.339Z" fill="#F9F6F6"/>
<path d="M7.90498 7.81862H6.82209C6.72186 7.81862 6.64062 7.73738 6.64062 7.63716V6.3728H8.08647V7.63716C8.08644 7.73738 8.0052 7.81862 7.90498 7.81862Z" fill="#26457D"/>
<path d="M7.55939 6.3728V7.63716C7.55939 7.73738 7.47815 7.81862 7.37793 7.81862H7.90505C8.00528 7.81862 8.08651 7.73738 8.08651 7.63716V6.3728H7.55939Z" fill="#21386B"/>
<path d="M4.66989 13.011C4.55527 13.011 4.4624 12.9181 4.4624 12.8036V11.4487C4.4624 11.3341 4.5553 11.2412 4.66989 11.2412C4.78451 11.2412 4.87737 11.3341 4.87737 11.4487V12.8036C4.8774 12.9181 4.78451 13.011 4.66989 13.011Z" fill="#26457D"/>
<path d="M4.09837 12.0023C4.04484 12.0023 3.99132 11.9817 3.95074 11.9406C3.8702 11.859 3.87103 11.7276 3.95254 11.6471L4.52405 11.0827C4.60489 11.0029 4.73484 11.0028 4.81567 11.0827L5.38721 11.6471C5.46872 11.7276 5.46955 11.859 5.38901 11.9406C5.30847 12.0221 5.17709 12.0229 5.09559 11.9424L4.66985 11.522L4.24416 11.9424C4.20372 11.9823 4.15103 12.0023 4.09837 12.0023Z" fill="#26457D"/>
<path d="M6.50119 13.011C6.38657 13.011 6.2937 12.9181 6.2937 12.8036V11.4487C6.2937 11.3341 6.38659 11.2412 6.50119 11.2412C6.61578 11.2412 6.70867 11.3341 6.70867 11.4487V12.8036C6.70867 12.9181 6.61578 13.011 6.50119 13.011Z" fill="#26457D"/>
<path d="M5.92966 12.0023C5.87614 12.0023 5.82262 11.9817 5.78204 11.9406C5.7015 11.859 5.70233 11.7276 5.78384 11.6471L6.35535 11.0827C6.43619 11.0029 6.56614 11.0028 6.64697 11.0827L7.21851 11.6471C7.30002 11.7276 7.30085 11.859 7.22031 11.9406C7.13977 12.0221 7.00837 12.0229 6.92689 11.9424L6.50115 11.522L6.07546 11.9424C6.03502 11.9823 5.98235 12.0023 5.92966 12.0023Z" fill="#26457D"/>
<path d="M12.4836 2.96747C12.369 2.96747 12.2761 2.87458 12.2761 2.75999V2.52328C12.2761 2.40866 12.369 2.3158 12.4836 2.3158C12.5982 2.3158 12.6911 2.40869 12.6911 2.52328V2.75999C12.6911 2.87458 12.5982 2.96747 12.4836 2.96747Z" fill="#21386B"/>
<path d="M15.4205 5.66741H15.1838C15.0692 5.66741 14.9763 5.57452 14.9763 5.45993C14.9763 5.34533 15.0692 5.25244 15.1838 5.25244H15.4205C15.5351 5.25244 15.628 5.34533 15.628 5.45993C15.628 5.57452 15.5351 5.66741 15.4205 5.66741Z" fill="#21386B"/>
<path d="M12.4836 8.60407C12.369 8.60407 12.2761 8.51118 12.2761 8.39658V8.15988C12.2761 8.04526 12.369 7.95239 12.4836 7.95239C12.5982 7.95239 12.6911 8.04529 12.6911 8.15988V8.39658C12.6911 8.51118 12.5982 8.60407 12.4836 8.60407Z" fill="#21386B"/>
<path d="M9.78357 5.66741H9.54684C9.43222 5.66741 9.33936 5.57452 9.33936 5.45993C9.33936 5.34533 9.43225 5.25244 9.54684 5.25244H9.78357C9.89819 5.25244 9.99106 5.34533 9.99106 5.45993C9.99106 5.57452 9.89817 5.66741 9.78357 5.66741Z" fill="#21386B"/>
<path d="M12.4594 5.66731C12.4237 5.66731 12.388 5.6581 12.3559 5.63965C12.2916 5.60264 12.252 5.53405 12.252 5.45982V3.69333C12.252 3.57871 12.3448 3.48584 12.4594 3.48584C12.574 3.48584 12.6669 3.57873 12.6669 3.69333V5.09929L13.1998 4.78967C13.2988 4.73212 13.4259 4.76574 13.4834 4.86487C13.541 4.96394 13.5073 5.09096 13.4082 5.14852L12.5636 5.63925C12.5315 5.65794 12.4955 5.66731 12.4594 5.66731Z" fill="#26457D"/>
</g>
<defs>
<clipPath id="clip0_6364_1594">
<rect width="40" height="40" fill="white"/>
</clipPath>
</defs>
</svg>
