<svg width="40" height="40" viewBox="0 0 40 40" fill="none" xmlns="http://www.w3.org/2000/svg">
<g clip-path="url(#clip0_6362_1165)">
<path d="M38.6208 38.6206H1.37939V4.48266C1.37939 4.29219 1.53377 4.13782 1.72424 4.13782H38.276C38.4664 4.13782 38.6208 4.29219 38.6208 4.48266V38.6206Z" fill="#FFD782"/>
<path d="M38.6206 32.4141H1.37915V37.9312H38.6206V32.4141Z" fill="#FFAF5F"/>
<path d="M38.6208 16.4923C38.4795 16.5275 38.3341 16.5517 38.1819 16.5517C37.1777 16.5517 36.3637 15.7377 36.3637 14.7335C36.3637 15.7376 35.5496 16.5517 34.5455 16.5517C33.5413 16.5517 32.7273 15.7377 32.7273 14.7335C32.7273 15.7376 31.9133 16.5517 30.9091 16.5517C29.9049 16.5517 29.0909 15.7377 29.0909 14.7335C29.0909 15.7376 28.2768 16.5517 27.2727 16.5517C26.2685 16.5517 25.4545 15.7377 25.4545 14.7335C25.4545 15.7376 24.6404 16.5517 23.6363 16.5517C22.6321 16.5517 21.818 15.7377 21.818 14.7335C21.818 15.7376 21.0041 16.5517 19.9998 16.5517C18.9956 16.5517 18.1816 15.7377 18.1816 14.7335C18.1816 15.7376 17.3676 16.5517 16.3634 16.5517C15.3593 16.5517 14.5452 15.7377 14.5452 14.7335C14.5452 15.7376 13.7312 16.5517 12.727 16.5517C11.7229 16.5517 10.9088 15.7377 10.9088 14.7335C10.9088 15.7376 10.0948 16.5517 9.09062 16.5517C8.08648 16.5517 7.27242 15.7377 7.27242 14.7335C7.27242 15.7376 6.45836 16.5517 5.45422 16.5517C4.45008 16.5517 3.63602 15.7377 3.63602 14.7335C3.63602 15.7376 2.82203 16.5517 1.81781 16.5517C1.66563 16.5517 1.52023 16.5275 1.37891 16.4923V17.8867C1.52375 17.9068 1.6675 17.9311 1.81781 17.9311C2.49273 17.9311 3.11945 17.7209 3.63602 17.3626C4.15273 17.7209 4.77938 17.931 5.45438 17.931C6.1293 17.931 6.75602 17.7209 7.27258 17.3625C7.78914 17.7209 8.41586 17.931 9.09078 17.931C9.7657 17.931 10.3924 17.7209 10.909 17.3625C11.4255 17.7209 12.0523 17.931 12.7272 17.931C13.4021 17.931 14.0288 17.7209 14.5454 17.3625C15.062 17.7209 15.6887 17.931 16.3636 17.931C17.0385 17.931 17.6652 17.7209 18.1818 17.3625C18.6983 17.7209 19.325 17.931 19.9999 17.931C20.6748 17.931 21.3016 17.7209 21.8181 17.3625C22.3347 17.7209 22.9614 17.931 23.6363 17.931C24.3113 17.931 24.938 17.7209 25.4545 17.3625C25.9711 17.7209 26.5978 17.931 27.2727 17.931C27.9477 17.931 28.5744 17.7209 29.0909 17.3625C29.6075 17.7209 30.2342 17.931 30.9091 17.931C31.5841 17.931 32.2108 17.7209 32.7273 17.3625C33.2439 17.7209 33.8706 17.931 34.5455 17.931C35.2205 17.931 35.8472 17.7209 36.3638 17.3625C36.8803 17.7209 37.507 17.931 38.182 17.931C38.3322 17.931 38.476 17.9068 38.6209 17.8866V16.4923H38.6208Z" fill="#FFAF5F"/>
<path d="M24.1378 20.6899H4.82764V34.4829H24.1378V20.6899Z" fill="#B4E1FA"/>
<path d="M35.1725 20.6899H26.8967V34.4829H35.1725V20.6899Z" fill="#B4E1FA"/>
<path d="M35.1728 20.6899H26.897V22.7589H35.1728V20.6899Z" fill="#A0D2F0"/>
<path d="M35.1725 27.1265L30.3449 20.6897H28.9656L35.1725 28.9656V27.1265Z" fill="#DAF0FD"/>
<path d="M27.5863 20.6897H26.8967V23.4483L35.1726 34.4827V30.8045L27.5863 20.6897Z" fill="#A0D2F0"/>
<path d="M31.8966 22.7586L30.3449 20.6897H28.9656L30.5173 22.7586H31.8966Z" fill="#B4E1FA"/>
<path d="M22.0689 34.4827H20.6896L10.3447 20.6897H11.724L22.0689 34.4827Z" fill="#DAF0FD"/>
<path d="M19.3105 34.4827H16.5519L6.20703 20.6897H8.9657L19.3105 34.4827Z" fill="#A0D2F0"/>
<path d="M24.1378 20.6898H4.82764V22.7588H24.1378V20.6898Z" fill="#A0D2F0"/>
<path d="M13.2757 22.7586L11.724 20.6897H10.3447L11.8964 22.7586H13.2757Z" fill="#B4E1FA"/>
<path d="M16.3636 16.5517C15.3595 16.5517 14.5454 15.7376 14.5454 14.7335V13.1034H18.1818V14.7335C18.1818 15.7376 17.3678 16.5517 16.3636 16.5517Z" fill="#D2555A"/>
<path d="M23.6366 16.5517C22.6324 16.5517 21.8184 15.7376 21.8184 14.7335V13.1034H25.4548V14.7335C25.4547 15.7376 24.6407 16.5517 23.6366 16.5517Z" fill="#D2555A"/>
<path d="M9.09091 16.5517C8.08677 16.5517 7.27271 15.7376 7.27271 14.7335V13.1034H10.9091V14.7335C10.909 15.7376 10.095 16.5517 9.09091 16.5517Z" fill="#D2555A"/>
<path d="M1.8182 16.5517C0.814063 16.5517 0 15.7376 0 14.7335V13.1034H3.63641V14.7335C3.63641 15.7376 2.82234 16.5517 1.8182 16.5517Z" fill="#D2555A"/>
<path d="M30.909 16.5517C29.9049 16.5517 29.0908 15.7376 29.0908 14.7335V13.1034H32.7272V14.7335C32.7272 15.7376 31.9132 16.5517 30.909 16.5517Z" fill="#D2555A"/>
<path d="M12.7274 16.5517C11.7232 16.5517 10.9092 15.7376 10.9092 14.7335V13.1034H14.5456V14.7335C14.5456 15.7376 13.7316 16.5517 12.7274 16.5517Z" fill="#C7CFE2"/>
<path d="M27.273 16.5517C26.2689 16.5517 25.4548 15.7376 25.4548 14.7335V13.1034H29.0912V14.7335C29.0912 15.7376 28.2772 16.5517 27.273 16.5517Z" fill="#C7CFE2"/>
<path d="M38.1817 16.5517C37.1776 16.5517 36.3635 15.7376 36.3635 14.7335V13.1034H39.9999V14.7335C39.9999 15.7376 39.1858 16.5517 38.1817 16.5517Z" fill="#D2555A"/>
<path d="M34.5457 16.5517C33.5416 16.5517 32.7275 15.7376 32.7275 14.7335V13.1034H36.3639V14.7335C36.3639 15.7376 35.5498 16.5517 34.5457 16.5517Z" fill="#C7CFE2"/>
<path d="M5.45468 16.5517C4.45054 16.5517 3.63647 15.7376 3.63647 14.7335V13.1034H7.27288V14.7335C7.27288 15.7376 6.45882 16.5517 5.45468 16.5517Z" fill="#C7CFE2"/>
<path d="M19.9998 16.5517C18.9957 16.5517 18.1816 15.7376 18.1816 14.7335V13.1034H21.818V14.7335C21.818 15.7376 21.004 16.5517 19.9998 16.5517Z" fill="#C7CFE2"/>
<path d="M18.1815 13.1034H14.5452L14.9213 7.58618H18.307L18.1815 13.1034Z" fill="#FF6464"/>
<path d="M25.4544 13.1034H21.8181L21.6926 7.58618H25.0783L25.4544 13.1034Z" fill="#FF6464"/>
<path d="M10.909 13.1034H7.27271L8.15044 7.58618H11.536L10.909 13.1034Z" fill="#FF6464"/>
<path d="M3.63641 13.1034H0L1.3793 7.58618H4.76492L3.63641 13.1034Z" fill="#FF6464"/>
<path d="M32.7276 13.1034H29.0913L28.4644 7.58618H31.8499L32.7276 13.1034Z" fill="#FF6464"/>
<path d="M14.5456 13.1034H10.9092L11.5361 7.58618H14.9218L14.5456 13.1034Z" fill="#EFF2FA"/>
<path d="M29.0912 13.1034H25.4548L25.0786 7.58618H28.4642L29.0912 13.1034Z" fill="#EFF2FA"/>
<path d="M40.0001 13.1034H36.3636L35.2351 7.58618H38.6208L40.0001 13.1034Z" fill="#FF6464"/>
<path d="M36.3639 13.1034H32.7276L31.8499 7.58618H35.2354L36.3639 13.1034Z" fill="#EFF2FA"/>
<path d="M7.2728 13.1034H3.63647L4.76499 7.58618H8.15053L7.2728 13.1034Z" fill="#EFF2FA"/>
<path d="M21.8183 13.1034H18.1819L18.3074 7.58618H21.6928L21.8183 13.1034Z" fill="#EFF2FA"/>
<path d="M23.4481 21.3793V33.7931H5.51707V21.3793H23.4481ZM24.1378 20H4.82738C4.44652 20 4.1377 20.3088 4.1377 20.6897V34.4828C4.1377 34.8637 4.44652 35.1725 4.82738 35.1725H24.1377C24.5186 35.1725 24.8274 34.8637 24.8274 34.4828V20.6897C24.8274 20.3088 24.5186 20 24.1378 20Z" fill="#8F96AC"/>
<path d="M34.9655 20H26.6897C26.3088 20 26 20.3088 26 20.6897V37.9311H35.6552V20.6897C35.6552 20.3088 35.3464 20 34.9655 20ZM34.2759 33.7931H27.3793V21.3793H34.2759V33.7931Z" fill="#8F96AC"/>
<path d="M31.0344 7.58618H8.96548C8.20368 7.58618 7.58618 6.96868 7.58618 6.20688V2.06899C7.58618 1.3072 8.20368 0.689697 8.96548 0.689697H31.0345C31.7963 0.689697 32.4138 1.3072 32.4138 2.06899V6.20696C32.4138 6.96868 31.7963 7.58618 31.0344 7.58618Z" fill="#AFB9D2"/>
<path d="M30.6895 6.20698H9.31018C9.11971 6.20698 8.96533 6.05261 8.96533 5.86214V2.41394C8.96533 2.22347 9.11971 2.06909 9.31018 2.06909H30.6895C30.8799 2.06909 31.0343 2.22347 31.0343 2.41394V5.86222C31.0343 6.05261 30.8799 6.20698 30.6895 6.20698Z" fill="#FFD782"/>
<path d="M9.31018 6.2068H30.6895C30.8799 6.2068 31.0343 6.05243 31.0343 5.86196V4.48267C31.0343 4.67313 30.8799 4.82751 30.6895 4.82751H9.31018C9.11971 4.82751 8.96533 4.67313 8.96533 4.48267V5.86196C8.96541 6.05243 9.11978 6.2068 9.31018 6.2068Z" fill="#FFAF5F"/>
<path d="M39.6552 39.3103H0.344844C0.154375 39.3103 0 39.1559 0 38.9654V38.2758C0 38.0853 0.154375 37.9309 0.344844 37.9309H39.6552C39.8456 37.9309 40 38.0853 40 38.2758V38.9654C40 39.1559 39.8456 39.3103 39.6552 39.3103Z" fill="#8F96AC"/>
</g>
<defs>
<clipPath id="clip0_6362_1165">
<rect width="40" height="40" fill="white"/>
</clipPath>
</defs>
</svg>
